<svg width="35" height="35" viewBox="0 0 35 35" fill="none" xmlns="http://www.w3.org/2000/svg">
    <g clip-path="url(#clip0_24_53)">
        <path fill-rule="evenodd" clip-rule="evenodd" d="M17.5 0.582743C13.3783 0.578292 9.38966 2.04184 6.24901 4.71109C3.10835 7.38035 1.02094 11.0808 0.360859 15.1494C-0.299221 19.2179 0.51118 23.3885 2.64683 26.9138C4.78248 30.4391 8.10377 33.0886 12.0155 34.3875C12.8905 34.5485 13.202 34.0112 13.202 33.5527C13.202 33.138 13.1845 31.773 13.1775 30.324C8.35274 31.374 7.33599 28.2782 7.33599 28.2782C7.01755 27.2294 6.33485 26.3289 5.41098 25.739C3.83598 24.6627 5.53348 24.689 5.53348 24.689C6.08302 24.7651 6.60793 24.9657 7.06827 25.2753C7.52862 25.5849 7.91225 25.9955 8.18999 26.4757C8.42498 26.9035 8.74244 27.2805 9.12402 27.5848C9.5056 27.8891 9.94372 28.1147 10.4131 28.2487C10.8824 28.3826 11.3736 28.4222 11.8583 28.3651C12.343 28.308 12.8116 28.1553 13.237 27.916C13.314 27.0357 13.706 26.2132 14.3395 25.5972C10.4895 25.1597 6.43648 23.6722 6.43648 17.0222C6.41256 15.299 7.05302 13.6326 8.22499 12.369C7.69374 10.8736 7.7532 9.23181 8.39124 7.77875C8.39124 7.77875 9.84724 7.31324 13.1617 9.55674C16.0041 8.77976 19.0029 8.77976 21.8452 9.55674C25.1527 7.31324 26.6 7.77875 26.6 7.77875C27.2405 9.23125 27.3035 10.8727 26.775 12.369C27.9465 13.6327 28.5858 15.2993 28.56 17.0222C28.56 23.6845 24.5017 25.1492 20.6412 25.578C21.0547 25.9983 21.3737 26.502 21.5768 27.0555C21.7799 27.609 21.8625 28.1995 21.819 28.7875C21.819 31.108 21.798 32.977 21.798 33.5475C21.798 34.0077 22.113 34.5485 22.9897 34.3787C26.8954 33.0749 30.2098 30.4241 32.3401 26.9005C34.4704 23.3769 35.2777 19.2103 34.6175 15.1461C33.9573 11.0818 31.8728 7.38499 28.7367 4.71685C25.6006 2.0487 21.6175 0.583296 17.5 0.582743Z" fill="#52FF00"/>
    </g>
    <defs>
        <clipPath id="clip0_24_53">
            <rect width="35" height="35" fill="white"/>
        </clipPath>
    </defs>
</svg>