<svg width="35" height="35" viewBox="0 0 35 35" fill="none" xmlns="http://www.w3.org/2000/svg">
    <g clip-path="url(#clip0_24_55)">
        <path fill-rule="evenodd" clip-rule="evenodd" d="M18.6177 11.6667V15.3673C19.3952 14.1844 20.4669 13.2239 21.7277 12.58C22.9884 11.9362 24.3948 11.6311 25.809 11.6947C33.3667 11.6947 35 16.4033 35 22.5283V35H28V23.9447C28 21.308 27.4657 17.9153 23.345 17.9153C19.348 17.9153 18.6667 20.7853 18.6667 23.7487V35H11.6877V11.6667H18.6177ZM7 5.80301C7 6.73127 6.63125 7.62151 5.97487 8.27788C5.3185 8.93426 4.42826 9.30301 3.5 9.30301C2.57174 9.30301 1.6815 8.93426 1.02513 8.27788C0.368749 7.62151 0 6.73127 0 5.80301C0 4.87475 0.368749 3.98451 1.02513 3.32814C1.6815 2.67176 2.57174 2.30301 3.5 2.30301C4.42826 2.30301 5.3185 2.67176 5.97487 3.32814C6.63125 3.98451 7 4.87475 7 5.80301Z" fill="#52FF00"/>
        <path d="M7 11.6947H0V35H7V11.6947Z" fill="#52FF00"/>
    </g>
    <defs>
        <clipPath id="clip0_24_55">
            <rect width="35" height="35" fill="white"/>
        </clipPath>
    </defs>
</svg> 