<svg width="50" height="50" viewBox="0 0 16 16" fill="none" xmlns="http://www.w3.org/2000/svg">
    <g clip-path="url(#clip0_111_4)">
        <path d="M13.3333 9.7778V14.0738C13.3334 14.2101 13.3067 14.345 13.2546 14.4709C13.2025 14.5968 13.1261 14.7112 13.0298 14.8076C12.9334 14.9039 12.819 14.9803 12.6931 15.0324C12.5672 15.0845 12.4323 15.1113 12.296 15.1111H1.92622C1.6511 15.1111 1.38725 15.0018 1.19271 14.8073C0.998176 14.6128 0.888886 14.3489 0.888886 14.0738V3.70403C0.888769 3.56777 0.915521 3.43283 0.96761 3.30692C1.0197 3.18101 1.0961 3.06661 1.19245 2.97026C1.2888 2.87391 1.4032 2.79751 1.52911 2.74542C1.65502 2.69333 1.78996 2.66658 1.92622 2.66669H6.03111M9.984 0.888916H15.1111V6.01603M8.09866 7.90136L15.0124 0.987583" stroke="#041940" stroke-width="2" stroke-linecap="round" stroke-linejoin="round"/>
    </g>
    <defs>
        <clipPath id="clip0_111_4">
            <rect width="16" height="16" fill="white"/>
        </clipPath>
    </defs>
</svg>