<svg width="20px" height="20px" viewBox="0 0 20 20" fill="none" xmlns="http://www.w3.org/2000/svg">
    <g clip-path="url(#clip0_28_90)">
        <path stroke="#52FF00" stroke-width="2" stroke-linecap="round" stroke-linejoin="round" d="M18.16 13.5202L16.6044 11.9646C16.1919 11.5521 15.6323 11.3203 15.0489 11.3203C14.4654 11.3203 13.9059 11.5521 13.4933 11.9646L12.7155 12.7424C12.303 13.1549 11.7434 13.3867 11.16 13.3867C10.5765 13.3867 10.017 13.1549 9.60443 12.7424L7.2711 10.4091C6.85857 9.9965 6.62681 9.43696 6.62681 8.85352C6.62681 8.27008 6.85857 7.71054 7.2711 7.29796L8.04888 6.52019C8.46113 6.10747 8.6927 5.54798 8.6927 4.96463C8.6927 4.38128 8.46113 3.82179 8.04888 3.40908L6.49332 1.85352C6.30267 1.62645 6.06462 1.44386 5.79589 1.3186C5.52716 1.19333 5.23426 1.12842 4.93776 1.12842C4.64127 1.12842 4.34837 1.19333 4.07964 1.3186C3.8109 1.44386 3.57286 1.62645 3.38221 1.85352C-0.708902 5.91463 1.22221 10.6024 5.3111 14.6891C9.39999 18.7757 14.0889 20.7091 18.16 16.6357C18.3878 16.4451 18.5711 16.2068 18.6968 15.9377C18.8226 15.6685 18.8877 15.375 18.8877 15.078C18.8877 14.7809 18.8226 14.4874 18.6968 14.2183C18.5711 13.9491 18.3878 13.7108 18.16 13.5202Z" />
    </g>
    <defs>
        <clipPath id="clip0_28_90">
            <rect width="20" height="20" fill="white"/>
        </clipPath>
    </defs>
</svg>