<svg width="20px" height="18px" viewBox="0 0 20 18" fill="none" xmlns="http://www.w3.org/2000/svg">
    <path stroke="#52FF00" stroke-width="2" stroke-linecap="round" stroke-linejoin="round" d="M13 8H19M16 11V5M10 4.5C10 4.95963 9.90947 5.41475 9.73358 5.83939C9.55769 6.26403 9.29988 6.64987 8.97487 6.97487C8.64987 7.29988 8.26403 7.55769 7.83939 7.73358C7.41475 7.90947 6.95963 8 6.5 8C6.04037 8 5.58525 7.90947 5.16061 7.73358C4.73597 7.55769 4.35013 7.29988 4.02513 6.97487C3.70012 6.64987 3.44231 6.26403 3.26642 5.83939C3.09053 5.41475 3 4.95963 3 4.5C3 3.57174 3.36875 2.6815 4.02513 2.02513C4.6815 1.36875 5.57174 1 6.5 1C7.42826 1 8.3185 1.36875 8.97487 2.02513C9.63125 2.6815 10 3.57174 10 4.5ZM5 11H8C9.06087 11 10.0783 11.4214 10.8284 12.1716C11.5786 12.9217 12 13.9391 12 15V17H1V15C1 13.9391 1.42143 12.9217 2.17157 12.1716C2.92172 11.4214 3.93913 11 5 11Z" />
</svg>